<svg class="icon icon--big" viewBox="0 0 40 40" version="1.1" xmlns="http://www.w3.org/2000/svg">
  <path d="M37.0093458,20 C37.0093458,29.3790654 29.3790654,37.0093458 20,37.0093458 C10.6209346,37.0093458 2.99065421,29.3790654 2.99065421,20 C2.99065421,10.6209346 10.6209346,2.99065421 20,2.99065421 C29.3790654,2.99065421 37.0093458,10.6209346 37.0093458,20 M20,0 C8.97196262,0 0,8.97196262 0,20 C0,31.0280374 8.97196262,40 20,40 C31.0280374,40 40,31.0280374 40,20 C40,8.97196262 31.0280374,0 20,0"></path>
  <path d="M8.62068966,18.2758621 C7.28979068,18.2758621 6.20689655,19.3588374 6.20689655,20.6898362 C6.20689655,22.020835 7.28979068,23.1034483 8.62068966,23.1034483 C9.95158863,23.1034483 11.0344828,22.020835 11.0344828,20.6898362 C11.0344828,19.3588374 9.95158863,18.2758621 8.62068966,18.2758621"></path>
  <path d="M28.6206897,20.6898362 C28.6206897,22.020835 29.7033029,23.1034483 31.0343017,23.1034483 C32.3653005,23.1034483 33.4482759,22.020835 33.4482759,20.6898362 C33.4482759,19.3588374 32.3653005,18.2758621 31.0343017,18.2758621 C29.7033029,18.2758621 28.6206897,19.3588374 28.6206897,20.6898362"></path>
  <path d="M25.4101458,23.4482759 L14.5898542,23.4482759 C13.7701013,23.4482759 13.1034483,24.1064122 13.1034483,24.9156923 C13.1034483,28.6697105 16.1974021,31.7241379 20,31.7241379 C23.8029695,31.7241379 26.8965517,28.6697105 26.8965517,24.9156923 C26.8965517,24.1064122 26.2298987,23.4482759 25.4101458,23.4482759"></path>
</svg>