<svg viewBox="0 0 851 315" version="1.1" xmlns="http://www.w3.org/2000/svg" xmlns:xlink="http://www.w3.org/1999/xlink">
<g transform="translate(-309.000000, -759.000000)">
    <g fill="#14AF6E">
        <path d="M655.399822,1005.4917 C686.234433,977.866914 713.781312,935.337412 711.90985,892.386312 C711.123408,874.324125 703.308563,857.698074 689.673146,845.822324 C672.366914,830.748519 648.524651,825.355677 626.373576,822.449585 C584.767637,816.994744 542.673835,826.479562 501.150146,820.366397 C480.925741,817.391541 462.100708,809.428532 447.233799,795.190032 C431.197367,779.831029 421.645138,759.158093 414.760954,738.391593 C406.746681,714.219623 401.740719,688.999294 398.006809,663.846602 C394.663867,641.336221 392.389044,618.487661 392.482561,595.710119 C392.590725,569.640959 404.42341,547.742684 418.686404,526.723677 C433.812456,504.435368 448.990336,481.053611 452.747907,453.765877 C456.502097,426.504069 445.416419,400.663744 436.659646,375.502034 C427.523173,349.251384 421.953856,320.02926 433.002353,293.402103 C441.6104,272.654768 457.983718,256.215843 468.885742,236.753591 C481.641201,213.986194 481.246853,189.74546 469.974142,166.314103 C463.280371,152.407019 454.170938,139.044405 445.451347,126.332223 C439.396419,117.507983 432.814192,108.853959 424.822454,101.680037 C412.632603,90.7432994 397.197833,87.5339723 381.657152,84.205155 C369.599126,81.6203334 357.241395,79.2654742 345.445891,75.6864038 C332.852678,71.8672256 321.449269,65.1847911 310.947225,57.3593086 C300.690805,49.7209523 291.211812,41.0680564 281.362133,32.9201758 C270.947972,24.3089887 259.950178,16.7563046 248.171575,10.1144517 C234.109135,2.18300619 219.033785,-3.26845352 203.142698,2.22809684 C195.1442,4.99328102 187.825106,9.65452707 180.738114,14.1962829 C168.827686,18.4911674 158.384232,24.9143307 150.081522,34.0992963 C149.307474,34.6347478 148.544693,35.1848537 147.788672,35.7428505 C147.478827,35.2840531 147.033777,34.9244552 146.509858,34.6155842 C145.436106,33.9843151 144.533613,35.6921235 145.602859,36.3222654 C146.37578,36.7754264 146.63605,37.4405135 146.995469,37.7798207 C144.813036,40.5720592 142.804116,43.5841147 140.990117,46.8452961 C130.235691,66.183549 126.097293,88.8675283 118.894251,109.619373 C109.810732,135.794496 101.993634,162.093618 97.6276412,189.520007 C93.1478511,217.677991 91.5693335,247.037641 93.5512124,275.489842 C95.7494193,307.06908 107.485208,337.094944 116.639708,367.096009 C121.379768,382.636502 125.438169,398.412593 127.238648,414.58661 C128.875755,429.289544 127.994669,444.385894 126.694449,459.087701 C123.909227,490.559848 117.440798,521.579961 113.59309,552.922473 C111.811765,567.440535 110.886738,581.87518 107.541543,596.168916 C104.338313,609.867456 99.440514,623.106071 93.5827603,635.874616 C82.3472303,660.376876 67.1772367,682.836529 52.8184727,705.557708 C45.1500996,717.69273 37.6958009,729.964151 30.8172499,742.569242 C23.9285585,755.188988 18.4043103,768.91571 13.3329985,782.359487 C4.97620691,804.509142 -1.39532559,827.834536 0.26431497,851.714545 C1.87325368,874.856194 12.2017839,895.911274 25.9712797,914.205678 C33.5934579,924.333038 42.4831822,933.118952 51.3120644,942.143846 C59.0660674,950.0674 66.1677065,958.635751 73.3020202,967.113921 C89.0567751,985.84345 104.674072,1005.17268 123.727827,1020.69176 C131.270009,1026.83536 139.507369,1032.08842 148.64835,1035.48488 C158.25128,1039.0538 168.83332,1039.59151 178.966929,1039.15976 C203.265509,1038.12719 227.105519,1030.73232 250.415977,1024.39934 C261.921916,1021.27794 273.462784,1018.21065 285.187305,1016.01811 C300.154492,1013.21686 315.494618,1013.95973 330.654471,1013.12668 C348.195058,1012.16624 365.691703,1010.53735 383.170321,1008.83179 C395.718466,1007.60983 408.028875,1006.7858 420.629975,1007.62336 C462.800393,1010.42575 501.474638,1028.6852 542.53187,1036.85225 C560.865659,1040.50121 579.678298,1041.3895 598.017721,1037.30316 C619.789095,1032.4514 638.961155,1020.21831 655.399822,1005.4917" id="Fill-1"></path>
    </g>
    <g transform="translate(630.000000, 782.000000)" fill="#C1D3D5">
        <path d="M233.2311,491.6986 C240.5821,490.9996 247.8911,489.9556 255.6741,490.0816 C264.0141,490.2176 272.8271,491.6316 281.3451,493.0836 C296.1391,495.6076 311.1621,498.8876 325.5891,498.7226 C338.4221,498.5766 348.5021,493.3896 352.7061,486.4946 C357.0691,479.3386 355.2751,470.3276 352.5801,461.9516 C349.6561,452.8716 344.8421,443.7826 341.5621,434.7016 C337.5041,423.4596 341.4051,413.1036 347.0051,403.9036 C352.4671,394.9396 358.5481,386.4126 362.2941,376.8426 C365.8491,367.7586 363.2771,357.0126 362.9161,347.1786 C362.5021,335.8896 365.8251,326.0856 378.7571,319.7936 C387.9091,315.3386 400.4601,314.3626 413.4471,315.4456 C439.2511,317.5946 465.2351,326.6626 490.9931,331.2586 C515.6461,335.6546 538.5231,334.5326 552.5841,323.7856 C567.2991,312.5346 569.4381,294.9786 566.7671,278.7346 C563.9981,261.8846 554.7131,245.4576 535.1481,230.7196 C514.0551,214.8276 484.6811,202.0596 472.0791,182.9116 C461.8461,167.3616 469.2651,151.6506 468.4341,136.8446 C467.4301,119.0056 460.7431,99.8386 451.5191,81.6506 C443.7511,66.3306 434.8501,50.6316 423.3251,35.6916 C413.3691,22.7806 399.9771,8.7856 379.9411,0.4396 C378.1591,-0.3034 376.5381,-0.0444 375.6301,0.7666 C360.0291,14.7146 369.6731,35.0636 380.3931,53.1686 C389.7961,69.0516 401.3231,84.7296 402.5651,100.6216 C403.6211,114.1466 403.6251,127.6956 400.8581,140.5306 C399.7701,145.5736 398.4861,151.4146 393.7631,155.1886 C390.0471,158.1586 383.7281,156.1096 378.8741,153.0826 C371.8351,148.6916 367.5651,142.4966 363.6361,137.1826 C358.9401,130.8296 354.6181,124.3956 348.8801,118.2326 C344.1831,113.1876 337.9721,108.1896 329.8121,105.1866 C319.8891,101.5336 309.7861,102.1276 301.0821,103.7136 C300.6021,103.8026 300.2591,103.9456 300.0191,104.1246 C243.7261,111.2196 197.0741,129.9756 164.9921,157.4416 C148.3551,171.6856 136.2911,188.2466 128.3861,206.1046 C123.2851,217.6306 120.8021,230.1366 117.9421,242.2756 C114.9791,254.8466 112.5181,267.5386 110.1591,280.2496 C108.4061,289.7056 106.5051,299.1246 105.1571,308.6706 C103.9371,317.3106 102.4991,325.9306 98.8421,333.9456 C95.2381,341.8496 88.5561,348.3416 76.5311,351.3946 C66.0341,354.0616 52.4701,352.7406 40.4491,352.6396 C28.8821,352.5416 18.2961,353.6406 10.1711,357.8286 C0.6381,362.7456 -1.9809,371.3946 1.4231,380.2216 C9.7531,401.8266 45.9501,414.1446 75.7601,420.6836 C95.6141,425.0386 113.9171,430.0276 128.6561,441.3186 C139.5631,449.6746 146.9221,459.3056 157.1061,467.9286 C166.9361,476.2516 181.0541,483.7346 195.2611,488.4566 C208.7041,492.9226 220.7031,492.8896 233.2311,491.6986" id="Fill-1"></path>
    </g>
    <g transform="translate(914.000000, 560.000000)" fill="#416662">
        <path d="M0.462287298,185.786749 C1.42152588,195.351611 4.64953369,204.604867 9.56396865,212.832785 C19.5169927,229.491909 35.1367668,241.666855 49.6908844,254.045087 C57.2391609,260.464199 64.6884097,267.040599 71.2892718,274.456854 C77.7024247,281.657953 82.7705743,289.627682 86.7523751,298.412043 C93.0177255,312.238507 98.48642,333.430777 115.842874,336.644784 C120.32277,337.47277 125.067232,336.757557 129.390456,335.485902 C135.429669,333.706772 141.755618,331.062561 146.602064,326.958246 C155.224865,319.653279 153.981845,308.025872 157.678387,298.323012 C159.800832,292.757111 163.692473,288.593443 168.689678,285.523368 C173.230172,282.736708 178.168256,280.681583 182.1471,277.044679 C191.712882,268.309286 187.201948,256.177372 186.248621,245.073762 C185.752005,239.270446 187.184211,233.815833 191.803041,230.066157 C195.807013,226.81357 201.083564,225.20805 205.941834,223.771688 C211.026242,222.264102 216.214111,221.094833 221.21575,219.312735 C226.226256,217.52767 230.870213,214.60598 235.24369,211.610097 C244.973533,204.950603 254.146159,195.477738 255.850323,183.30576 C257.115512,174.263211 252.821848,167.444945 247.326549,161.294409 C247.866029,160.904157 248.161634,160.145913 247.654671,159.452957 C245.440589,156.425914 242.564351,154.341113 239.231403,152.891396 C237.225723,150.800659 235.305767,148.628311 233.651857,146.242288 C232.695574,144.866764 230.667723,146.4708 231.618094,147.838905 C232.431008,149.01411 233.310433,150.135897 234.229765,151.225039 C231.786589,150.557309 229.304984,149.858418 227.371726,148.254382 C223.836289,145.319337 225.267018,138.747389 226.30607,134.997713 C227.521007,130.621856 229.995222,126.772762 232.971965,123.399984 C239.657075,115.821989 249.001152,110.760595 257.756976,106.021195 C266.499497,101.293666 275.546491,96.9356139 283.589906,91.0343637 C286.987887,88.538537 290.283884,85.6524591 292.642813,82.1223926 C295.405242,77.9869175 297.11384,73.1911316 298.368684,68.4087002 C301.243443,57.4623781 301.669115,45.704393 300.10093,34.5176881 C298.659855,24.2405799 294.80812,14.2483699 286.608034,7.53248896 C278.205459,0.654868931 266.738937,-0.7414289 256.289296,0.316552347 C232.457612,2.73076762 211.302632,17.6834703 198.721679,37.7302118 C192.227235,48.0740929 187.837499,59.6139529 184.608013,71.3585834 C181.873666,81.2988588 181.105092,93.5094166 174.346082,101.7314 C166.351441,111.460969 153.699543,103.884458 144.795917,100.020527 C139.921388,97.9060483 134.81481,96.20853 129.442187,96.4963959 C124.903171,96.7397464 120.80165,99.1391233 117.504175,102.142425 C105.972619,112.64211 107.52898,131.826737 94.8194386,141.133411 C87.0686726,146.807633 76.4608832,145.728878 67.5350869,144.420127 C58.8782912,143.152924 50.3530398,141.111153 41.6977222,139.809822 C34.3504572,138.702874 26.4444985,137.977274 19.2199096,140.168912 C12.1076506,142.321971 7.06019337,147.448654 4.10562029,154.200147 C-0.0904942584,163.794687 -0.567896512,175.500737 0.462287298,185.786749" id="Fill-1"></path>
    </g>
</g>
</svg>