
<svg width="350px" height="361px" viewBox="0 0 350 361" version="1.1" xmlns="http://www.w3.org/2000/svg" xmlns:xlink="http://www.w3.org/1999/xlink">
  <path d="M97.6248017,360.85907 C128.078104,361.744428 158.533614,358.317997 188.696857,354.511179 C210.340154,351.781387 231.885538,348.472168 253.653987,346.951358 C272.623436,345.627375 291.91681,344.495061 310.299514,339.274324 C324.916599,335.122504 341.209255,326.414888 343.904452,309.907128 C345.755238,298.578822 340.590854,287.309491 342.112562,275.991506 C342.758202,271.188753 345.744195,266.601995 347.695103,262.240077 C349.840365,257.439535 350.265148,253.613551 349.865396,248.383231 C348.887733,235.586455 347.520626,223.754653 342.105936,211.953812 C336.820081,200.432365 328.460625,191.215354 321.864348,180.551251 C316.058005,171.170585 311.572389,161.102127 309.011179,150.35546 C306.745181,140.850947 306.338803,130.984478 306.030339,121.255861 C305.454637,102.986232 307.002112,83.357235 297.906465,66.8332571 C291.94773,56.0047623 282.165952,48.2517989 271.312279,42.6425663 C272.265647,42.1582365 272.912023,41.134288 272.467364,39.8154659 C269.109594,29.8516878 257.265007,26.8299709 247.822613,27.5538855 C238.247705,28.2866463 229.837452,34.0130912 223.291237,40.6779711 C209.748256,54.4714197 205.847913,74.0694546 196.232514,90.3140398 C192.72088,96.2468962 188.043855,101.53914 181.287088,103.615787 C172.610334,106.281444 162.687944,102.65671 154.761369,99.3025236 C135.582105,91.1846541 124.843278,73.5261501 115.139536,56.0305638 C105.973951,39.5043743 97.1403876,21.6107086 81.5566837,10.1364407 C65.8868453,-1.39901354 45.5340922,-3.28989033 28.197516,5.49881654 C11.3372558,14.0457271 0.604318359,32.1214772 0.0227269888,50.8260452 C-0.625857817,71.7171007 12.7271856,87.9801155 24.7558202,103.498575 C30.8536953,111.365801 36.0946434,119.674602 38.3459173,129.487257 C41.1721569,141.801915 37.6826087,155.343246 37.0060486,167.793546 C36.2742741,181.261159 37.4838369,194.566592 40.4646767,207.71353 C43.3056402,220.238285 44.6293127,233.730226 42.7858889,246.501937 C39.6084859,268.506878 24.8736109,286.906252 21.0476231,308.640646 C18.0071518,325.920237 26.4969134,340.163368 41.3046714,348.543675 C58.0471409,358.017963 78.7613642,360.310605 97.6248017,360.85907" fill="#EB7355"></path>
</svg>