
<svg width="138px" height="201px" viewBox="0 0 138 201" version="1.1" xmlns="http://www.w3.org/2000/svg" xmlns:xlink="http://www.w3.org/1999/xlink">
  <path d="M29.7118,200.8782 C38.9118,201.7282 48.0098,197.9712 55.8008,193.4342 C65.9588,187.5192 74.9098,179.5762 83.0078,171.1132 C91.9388,161.7812 99.9178,151.5162 106.9118,140.6622 C112.0878,132.6332 116.7948,124.2102 120.5128,115.3892 C120.5368,115.7362 120.9928,116.0052 121.2428,115.6532 C130.8968,102.0302 136.2078,85.4362 137.0298,68.8092 C137.8638,51.9502 133.8008,34.7012 123.8708,20.8822 C115.0398,8.5922 101.3368,-1.1488 85.6198,0.1102 C71.7068,1.2252 59.5528,10.1232 50.0768,19.7662 C44.8658,25.0692 40.2238,30.9272 36.0568,37.0792 C32.2698,42.6682 29.0518,48.5632 25.8918,54.5192 C18.7038,68.0672 13.3158,82.6442 8.9508,97.3212 C4.0898,113.6792 0.4958,130.6862 0.0418,147.7912 C-0.1542,155.2012 0.3118,162.6822 2.0418,169.9062 C2.8188,173.1432 4.0118,176.1382 5.2518,179.2112 C6.3148,181.8432 7.5658,184.4032 9.0378,186.8312 C13.6168,194.3802 20.7258,200.0492 29.7118,200.8782" fill="#14AF6E"></path>
</svg>