
<svg width="325px" height="339px" viewBox="0 0 325 339" version="1.1" xmlns="http://www.w3.org/2000/svg" xmlns:xlink="http://www.w3.org/1999/xlink">
    <path d="M135.3828,1.6654 C126.4588,3.6714 117.9528,8.2904 110.5008,14.7744 C95.4128,27.9034 84.8458,47.2084 74.0308,65.2924 C68.4208,74.6714 62.6598,83.9484 56.0638,92.3174 C49.6558,100.4494 42.4548,107.0884 34.4308,112.5384 C21.7998,121.1134 2.2098,129.4544 0.1518,149.9384 C-0.3802,155.2274 0.5498,160.6814 1.9838,165.5904 C3.9858,172.4484 6.8148,179.5614 10.9358,184.8134 C18.2668,194.1634 29.1088,191.6354 38.4178,195.0314 C43.7588,196.9784 47.8808,201.1184 51.0368,206.6444 C53.9038,211.6664 56.1048,217.2194 59.7358,221.5114 C68.4588,231.8194 79.5958,225.4424 89.9658,223.2994 C95.3868,222.1794 100.5848,223.3374 104.3578,228.3604 C107.6298,232.7144 109.4268,238.7004 111.0458,244.2184 C112.7398,249.9954 114.1198,255.9154 116.0698,261.5714 C118.0208,267.2314 121.0188,272.3624 124.0698,277.1694 C130.8548,287.8644 140.2508,297.6534 151.7688,298.4994 C160.3238,299.1304 166.4878,293.4974 171.9558,286.5324 C172.3528,287.1234 173.0798,287.3974 173.7038,286.7414 C176.4238,283.8864 178.2208,280.3444 179.3968,276.3334 C181.2498,273.8044 183.1828,271.3704 185.3338,269.2224 C186.5718,267.9844 184.9528,265.7744 183.7218,267.0054 C182.6628,268.0624 181.6578,269.1904 180.6858,270.3604 C181.1798,267.4564 181.6988,264.5044 183.0978,262.1054 C185.6588,257.7214 191.9038,258.7724 195.4788,259.6324 C199.6538,260.6344 203.4038,263.1554 206.7328,266.3024 C214.2118,273.3714 219.4788,283.7684 224.4058,293.5124 C229.3248,303.2414 233.9128,313.3584 239.8948,322.1624 C242.4228,325.8864 245.3138,329.4474 248.7568,331.8624 C252.7898,334.6894 257.3848,336.2294 261.9438,337.2454 C272.3748,339.5664 283.4328,338.9674 293.8458,336.1004 C303.4108,333.4664 312.5788,328.0554 318.4288,317.8904 C324.4208,307.4744 325.1008,294.0084 323.5318,281.9514 C319.9558,254.4544 304.7588,231.2414 285.2488,218.4744 C275.1828,211.8884 264.1128,207.8564 252.9108,205.1934 C243.4318,202.9394 231.9308,203.1854 223.8408,196.0904 C214.2698,187.6974 220.6848,172.2724 223.8208,161.5574 C225.5368,155.6904 226.8488,149.5914 226.2838,143.3714 C225.8038,138.1124 223.3268,133.5634 220.3278,130.0094 C209.8388,117.5764 191.9198,121.1744 182.4848,107.2574 C176.7308,98.7704 177.1618,86.3324 177.8978,75.8294 C178.6118,65.6394 180.0578,55.5324 180.8038,45.3454 C181.4378,36.6964 181.6818,27.4304 179.2298,19.2304 C176.8168,11.1594 171.7288,5.7674 165.2278,2.9614 C155.9938,-1.0286 144.9808,-0.4906 135.3828,1.6654" fill="#C1D3D5"></path>
</svg>