
<svg width="560px" height="319px" viewBox="0 0 560 319" version="1.1" xmlns="http://www.w3.org/2000/svg" xmlns:xlink="http://www.w3.org/1999/xlink">
  <path d="M558.1382,128.6057 C554.2442,114.3967 543.1652,103.0397 533.7462,92.2437 C524.4982,81.6437 515.7492,70.2887 513.0052,56.1617 C511.5082,48.4627 513.0852,40.6347 511.8232,32.9587 C510.7682,26.5537 507.1852,21.2557 502.7512,16.6527 C494.6512,8.2457 483.2562,3.6227 471.8972,1.8057 C460.0112,-0.0953 448.3912,1.5187 436.9832,5.0407 C423.2122,9.2907 410.0262,15.9217 398.6902,24.8417 C392.9472,29.3617 388.1082,34.4107 384.4202,40.7387 C380.4922,47.4797 377.3852,54.3037 372.0672,60.1347 C362.2232,70.9247 347.9922,75.1677 334.3582,78.8927 C326.6052,81.0117 319.8402,85.2737 311.5772,85.3077 C304.7622,85.3357 297.3842,84.2717 290.9182,87.0277 C280.6322,91.4087 274.5922,104.0027 269.7862,113.3207 C266.9932,118.7367 264.3532,124.2367 261.2652,129.4967 C257.9922,135.0737 253.8002,139.9017 249.0222,144.2437 C239.2602,153.1177 227.0342,158.4837 214.2012,161.0997 C187.9012,166.4617 161.4962,160.3687 135.2422,158.2937 C112.7152,156.5147 89.7632,159.2477 68.4492,166.8067 C66.9712,167.3317 65.5102,167.8817 64.0582,168.4567 C57.2012,169.9627 50.6742,171.9187 44.3412,175.1887 C37.5322,178.7087 31.1152,183.4137 23.8922,186.0727 C15.4642,189.1767 4.4592,187.0217 0.9902,197.4717 C-1.6248,205.3457 0.9072,214.3757 8.9642,217.4387 C16.5492,220.3237 25.6062,218.6427 33.4352,217.9257 C38.4372,217.4677 42.8532,217.6317 47.7722,218.9587 C54.6372,220.8117 60.8352,224.4537 66.7702,228.2677 C72.7422,232.1047 78.5602,236.3357 85.0392,239.2967 C92.3152,242.6227 100.0792,244.7527 107.8822,246.4267 C122.5042,249.5637 137.5132,250.8507 152.0502,254.3847 C162.2902,256.8747 171.5642,261.3357 178.9872,268.9267 C187.5762,277.7127 192.0982,289.3367 200.1842,298.4937 C208.3412,307.7277 219.2042,314.6997 231.0892,317.9887 C242.7372,321.2127 255.1472,320.0487 265.8582,314.4257 C272.4102,310.9847 278.6612,307.1027 285.3682,303.9197 C292.5282,300.5227 299.8882,297.5607 307.3262,294.8367 C322.0752,289.4357 337.2102,285.1407 352.3902,281.1467 C359.8922,279.1727 367.4202,277.2897 374.9432,275.3997 C381.8402,273.6677 389.2382,272.4537 395.7962,269.6687 C402.3652,266.8827 407.7272,261.8917 414.5042,259.5107 C418.0472,258.2657 422.2292,258.7197 425.8922,259.0177 C429.9442,259.3477 433.9672,259.8407 438.0372,259.5417 C449.5482,258.6977 457.3942,251.4647 463.0592,242.0167 C466.1872,236.8007 468.6992,231.1677 472.2282,226.2047 C475.8282,221.1407 480.7492,217.1257 485.8862,213.7087 C496.1582,206.8807 507.7632,202.3637 518.3202,196.0197 C523.3892,192.9737 528.1742,189.4337 532.3142,185.1967 C537.2932,180.1017 541.1982,174.0827 544.9472,168.0577 C546.8862,164.9387 548.7662,161.7817 550.6822,158.6467 C552.8062,155.1667 555.3042,151.8977 557.0332,148.1947 C559.9272,141.9977 559.9182,135.1007 558.1382,128.6057" fill="#4F4166"></path>
</svg>