<svg class="icon" viewBox="0 0 512 512" xmlns="http://www.w3.org/2000/svg">
  <defs>
    <radialGradient id="gradient" r="150%" cx="30%" cy="100%">
      <stop stop-color="#fdf497" offset="0" />
      <stop stop-color="#fdf497" offset="0.05" />
      <stop stop-color="#fd5949" offset="0.45" />
      <stop stop-color="#d6249f" offset="0.6" />
      <stop stop-color="#285AEB" offset="0.9" />
    </radialGradient>
  </defs>
  <path fill="url(#gradient)" d="m152 511c-30-1-59-7-85-23-33-20-54-51-61-90-4-23-5-47-6-71 0-50 0-101 1-152 0-27 1-54 10-79 17-50 52-80 103-90 23-4 47-5 70-6 51 0 102 0 153 1 27 0 53 1 79 10 50 17 80 52 90 103 4 23 5 47 6 71 0 50 0 101-1 152 0 27-1 54-10 79-17 50-52 80-103 90-23 4-47 5-70 6-24 1-141 0-176-1m314-259c0-20 0-41 0-61-1-19-2-39-4-58-4-43-30-73-72-81-23-4-47-5-70-5-43-1-85-1-128 0-22 0-44 1-66 4-37 6-62 27-72 64-4 11-6 24-6 36-1 46-2 93-2 139 1 30 1 59 4 89 4 43 30 73 72 81 23 4 47 5 70 5 43 1 85 1 128 1 20-1 39-2 59-4 18-2 35-7 50-19 24-19 33-45 34-74 2-39 3-117 3-117m-210 135c-73 0-131-58-131-132 0-73 59-131 133-130 72 0 130 59 129 133 0 71-59 129-131 129m0-46c47 0 85-38 85-85 0-47-38-85-85-85-47 0-85 38-85 85 0 47 38 85 85 85m137-252c17 0 31 13 30 31 0 17-14 31-31 30-17 0-31-14-30-31 0-17 14-30 31-30"/>  
</svg>
