<svg class="icon icon--big" viewBox="0 0 525 640" version="1.1" xmlns="http://www.w3.org/2000/svg">
<path d="M481.582233,377.75089 C481.582233,498.512518 383.269506,596.758869 262.42629,596.758869 C141.584051,596.758869 43.2713231,498.512518 43.2713231,377.75089 L43.2713231,262.244226 C43.2713231,141.485529 141.584051,43.2421081 262.42629,43.2421081 C341.666637,43.2421081 415.005328,86.3484466 453.824507,155.738399 L456.645339,160.780431 L451.060366,159.288919 C442.876435,157.102932 434.703256,155.99431 426.766613,155.99431 C372.681124,155.99431 328.679669,201.539617 328.679669,257.521596 L328.679669,403.214026 C328.679669,435.404104 304.089758,461.592972 273.864048,461.592972 C243.639316,461.592972 219.048428,435.404104 219.048428,403.214026 C219.048428,391.291703 209.342656,381.593461 197.413255,381.593461 C185.482877,381.593461 175.777105,391.291703 175.777105,403.214026 C175.777105,459.24875 219.77856,504.834104 273.864048,504.834104 C327.949537,504.834104 371.950992,459.218471 371.950992,403.148583 L371.950992,257.615364 C371.950992,225.425287 396.540903,199.236418 426.766613,199.236418 C454.830271,199.236418 478.794634,222.543847 481.32615,252.297887 L481.332014,252.39654 C481.476672,255.643288 481.578324,372.765511 481.582233,377.748936 L481.582233,377.75089 Z M524.853556,262.244226 C524.853556,258.485657 524.710853,254.673366 524.576947,251.395362 L524.575969,251.363129 C524.569128,251.121869 524.582811,250.884517 524.601382,250.648141 C524.606269,250.575861 524.615066,250.504557 524.613111,250.430323 C524.610179,250.387346 524.601382,250.331671 524.593563,250.275996 C524.570105,250.115807 524.550557,249.955619 524.538828,249.7925 C521.355373,182.443974 492.650528,119.612959 443.708219,72.8125172 C394.606591,25.858724 330.225946,0 262.42629,0 C117.724272,0 0,117.641859 0,262.244226 L0,377.75089 C0,522.356187 117.724272,640 262.42629,640 C407.129285,640 524.853556,522.356187 524.853556,377.75089 L524.853556,262.244226 Z"></path>
<path d="M196.820084,243.682008 C178.855422,243.682008 164.239888,258.297322 164.239888,276.262694 C164.239888,294.227085 178.855422,308.842399 196.820084,308.842399 C214.784745,308.842399 229.400279,294.227085 229.400279,276.262694 C229.400279,258.297322 214.784745,243.682008 196.820084,243.682008"></path>
<path d="M426.220853,243.682008 C408.256462,243.682008 393.640167,258.297322 393.640167,276.262694 C393.640167,294.227085 408.256462,308.842399 426.220853,308.842399 C444.185244,308.842399 458.800558,294.227085 458.800558,276.262694 C458.800558,258.297322 444.185244,243.682008 426.220853,243.682008"></path>
</svg>